<svg version="1.1" viewBox="0 0 80 80" style="enable-background:new 0 0 80 80;" xml:space="preserve">
<path style="fill:#DA1C5C;" d="M15.025,53.244h-4.894l-1.167,2.948H6.591l5.987-14.386l5.969,14.386h-2.354L15.025,53.244z
	 M14.247,51.317l-1.668-4.19l-1.668,4.19H14.247z"/>
<path style="fill:#DA1C5C;" d="M20.457,50.241v-1.854h5.784v1.854H20.457z"/>
<path style="fill:#DA1C5C;" d="M36.715,56.192l-5.45-6.229v6.229h-2.15V42.437h2.15v5.673l4.412-5.673h2.707l-5.042,6.619
	l6.062,7.137H36.715z"/>
<path style="fill:#DA1C5C;" d="M43.296,55.654c-0.834-0.352-1.557-0.853-2.188-1.482c-0.63-0.631-1.13-1.354-1.482-2.188
	c-0.353-0.834-0.538-1.742-0.538-2.669s0.185-1.836,0.538-2.688c0.353-0.816,0.853-1.538,1.482-2.188
	c0.631-0.631,1.354-1.113,2.188-1.465c0.834-0.353,1.743-0.538,2.67-0.538s1.835,0.186,2.688,0.538
	c0.815,0.352,1.538,0.834,2.187,1.465c0.631,0.649,1.112,1.371,1.465,2.188c0.352,0.852,0.537,1.761,0.537,2.688
	s-0.186,1.835-0.537,2.669c-0.353,0.835-0.834,1.558-1.465,2.188c-0.648,0.63-1.371,1.131-2.187,1.482
	c-0.854,0.353-1.762,0.538-2.688,0.538S44.13,56.007,43.296,55.654z M42.629,45.979c-0.89,0.89-1.39,2.076-1.39,3.336
	c0,1.261,0.5,2.446,1.39,3.337c0.89,0.89,2.076,1.391,3.337,1.391s2.447-0.501,3.337-1.391c0.89-0.891,1.39-2.076,1.39-3.337
	c0-1.26-0.5-2.446-1.39-3.336s-2.076-1.391-3.337-1.391S43.519,45.089,42.629,45.979z"/>
<path style="fill:#DA1C5C;" d="M64.894,56.192h-2.429l-3.467-4.653h-1.575v4.653h-2.15V42.437h1.817h2.26
	c1.817,0,2.874,0.742,3.431,1.372c0.724,0.798,1.112,1.909,1.112,3.188c0,1.261-0.389,2.372-1.112,3.17
	c-0.334,0.371-0.853,0.798-1.594,1.057L64.894,56.192z M59.35,49.61c0.892,0,1.559-0.259,1.984-0.74
	c0.52-0.557,0.612-1.335,0.612-1.873c0-0.556-0.093-1.334-0.612-1.891c-0.426-0.482-1.093-0.724-1.984-0.724h-1.927v5.228H59.35z"/>
<path style="fill:#DA1C5C;" d="M76.722,49.314c0,1.947-0.574,3.614-1.669,4.819c-0.593,0.668-1.334,1.187-2.206,1.521
	c-0.89,0.353-1.891,0.538-3.003,0.538h-2.539h-0.723V42.437h2.15h1.111c1.112,0,2.113,0.167,3.003,0.538
	c0.872,0.334,1.613,0.853,2.206,1.521C76.147,45.699,76.722,47.368,76.722,49.314z M74.571,49.314c0-1.409-0.39-2.576-1.112-3.374
	c-0.815-0.907-2.021-1.353-3.615-1.353h-1.111v9.454h1.111c1.595,0,2.8-0.464,3.615-1.354
	C74.182,51.891,74.571,50.705,74.571,49.314z"/>
<g>
	<path style="fill:#DA1C5C;" d="M10.657,34.4l-5.893-3.119c5.13-9.691,13.714-16.845,24.172-20.145
		C36.615,8.714,44.761,8.57,52.49,10.72l-1.787,6.423c-6.483-1.803-13.316-1.681-19.76,0.352
		C22.166,20.263,14.961,26.267,10.657,34.4z"/>
</g>
<path style="fill:none;stroke:#DA1C5C;stroke-width:5;stroke-miterlimit:10;" d="M41.255,12.645"/>
<path style="fill:none;stroke:#DA1C5C;stroke-width:5;stroke-miterlimit:10;" d="M77.875,42.781"/>
<path style="fill:none;stroke:#DA1C5C;stroke-width:5;stroke-miterlimit:10;" d="M77.875,42.781"/>
<g>
	
		<rect x="42.377" y="47.855" transform="matrix(0.5144 0.8575 -0.8575 0.5144 64.2856 -15.4651)" style="fill:#DA1C5C;" width="6.842" height="2.352"/>
</g>
</svg>
